# xmcd
#
# Track frame offsets: 
#        150
#        22208
#        41956
#        62654
#        80589
#        98789
#        122763
#        138737
#        158193
#        178491
#        195028
#        216915
#        233938
#        259673
#        277845
#        297821
#        312702
#
# Disc length: 4543 seconds
#
# Revision: 3
# Processed by: cddbd v1.5.2PL0 Copyright (c) Steve Scherf et al.
# Submitted via: ExactAudioCopyFreeDBPlugin 1.0
#
DISCID=0511bd11
DTITLE=Eric Roberson - Music Fan First
DYEAR=2009
DGENRE=R&B
TTITLE0=The Newness
TTITLE1=The Hunger (feat. W. Ellington Felton)
TTITLE2=A Tale of Two (feat. Benjamin O'Neill and Michelle Thompson)
TTITLE3=Borrow You
TTITLE4=Dealing (feat. Lalah Hathaway)
TTITLE5=Still
TTITLE6=How Could She Do It?
TTITLE7=Further (feat. T3)
TTITLE8=The Power That Kisses Hold
TTITLE9=Howard Girls (feat. Brandon Hines, Aaron Abernathy, and Geno You
TTITLE9=ng)
TTITLE10=Weekend Getaway
TTITLE11=She
TTITLE12=Wanna Believe It Again (feat. Wayna)
TTITLE13=Bad for Me
TTITLE14=Break It Down
TTITLE15=Pave a New Road
TTITLE16=Celebrate (feat. Sy Smith)
EXTD=
EXTT0=
EXTT1=
EXTT2=
EXTT3=
EXTT4=
EXTT5=
EXTT6=
EXTT7=
EXTT8=
EXTT9=
EXTT10=
EXTT11=
EXTT12=
EXTT13=
EXTT14=
EXTT15=
EXTT16=
PLAYORDER=
